# Exported from Wings 3D 2.1.5
mtllib Rocket.mtl
o cone9
#17 vertices, 30 faces
v 0.42587916 1.92754860 7.8932038e-2
v 0.36325506 1.92754860 0.23590059
v 0.24532867 1.92754860 0.35695542
v 9.0053206e-2 1.92754860 0.42366703
v -7.8932038e-2 1.92754860 0.42587916
v -0.23590059 1.92754860 0.36325506
v -0.35695542 1.92754860 0.24532867
v -0.42366703 1.92754860 9.0053206e-2
v -0.42587916 1.92754860 -7.8932038e-2
v -0.36325506 1.92754860 -0.23590059
v -0.24532867 1.92754860 -0.35695542
v -9.0053206e-2 1.92754860 -0.42366703
v 7.8932038e-2 1.92754860 -0.42587916
v 0.23590059 1.92754860 -0.36325506
v 0.35695542 1.92754860 -0.24532867
v 0.42366703 1.92754860 -9.0053206e-2
v -1.2587398e-17 2.79381260 -8.3358350e-19
vn 0.98100305 -6.7640061e-2 0.18181817
vn 0.53601071 -0.76910745 0.34808943
vn 0.36200127 -0.76910745 0.52671512
vn 0.13288042 -0.76910745 0.62515321
vn -0.11647028 -0.76910745 0.62841739
vn -0.34808943 -0.76910745 0.53601071
vn -0.52671512 -0.76910745 0.36200127
vn -0.82551436 -0.53641108 0.17546849
vn -0.98100305 -6.7640061e-2 -0.18181817
vn -0.53601071 -0.76910745 -0.34808943
vn -0.36200127 -0.76910745 -0.52671512
vn -0.13288042 -0.76910745 -0.62515321
vn 0.11647028 -0.76910745 -0.62841739
vn 0.34808943 -0.76910745 -0.53601071
vn 0.52671512 -0.76910745 -0.36200127
vn 0.82551436 -0.53641108 -0.17546849
vn -1.5759486e-16 1.00000000 -2.2654261e-16
g cone9_Ship
usemtl Ship
s 1
f 1//1 17//17 2//2
f 2//2 16//16 1//1
f 2//2 17//17 3//3
f 3//3 15//15 2//2
f 3//3 17//17 4//4
f 4//4 14//14 3//3
f 4//4 17//17 5//5
f 5//5 13//13 4//4
f 5//5 17//17 6//6
f 6//6 12//12 5//5
f 6//6 17//17 7//7
f 7//7 11//11 6//6
f 7//7 17//17 8//8
f 8//8 10//10 7//7
f 8//8 17//17 9//9
f 9//9 10//10 8//8
f 9//9 17//17 10//10
f 10//10 17//17 11//11
f 11//11 7//7 10//10
f 11//11 17//17 12//12
f 12//12 6//6 11//11
f 12//12 17//17 13//13
f 13//13 5//5 12//12
f 13//13 17//17 14//14
f 14//14 4//4 13//13
f 14//14 17//17 15//15
f 15//15 3//3 14//14
f 15//15 17//17 16//16
f 16//16 2//2 15//15
f 16//16 17//17 1//1
o tetrahedron5_copy8
#4 vertices, 4 faces
v -1.7603059e-3 0.79093382 0.42220679
v -0.19907936 0.17987767 0.41419929
v 0.19571169 0.18163989 0.41888126
v -1.7603059e-3 -1.0721431e-2 1.06665401
vn 1.4519460e-2 0.89328094 -0.44926423
vn -0.60635376 -0.46327690 -0.64630459
vn 0.62359703 -0.45529656 -0.63547760
vn 9.0525427e-3 -0.67463222 0.73809851
g tetrahedron5_copy8_Ship
usemtl Ship
s 1
f 18//18 20//20 19//19
f 18//18 21//21 20//20
f 19//19 21//21 18//18
f 20//20 21//21 19//19
o tetrahedron5_copy7
#4 vertices, 4 faces
v -1.6073610e-3 0.79093382 -0.41425391
v 0.19571169 0.17987767 -0.40624641
v -0.19907936 0.18163989 -0.41092839
v -1.6073610e-3 -1.0721431e-2 -1.05870114
vn -1.4519460e-2 0.89328094 0.44926423
vn 0.60635376 -0.46327690 0.64630459
vn -0.62359703 -0.45529656 0.63547760
vn -9.0525427e-3 -0.67463222 -0.73809851
g tetrahedron5_copy7_Ship
usemtl Ship
s 1
f 22//22 24//24 23//23
f 22//22 25//25 24//24
f 23//23 25//25 22//22
f 24//24 25//25 23//23
o tetrahedron5_copy6
#4 vertices, 4 faces
v -0.42220679 0.79093382 -3.6551388e-4
v -0.41419929 0.17987767 -0.19768457
v -0.41888126 0.18163989 0.19710649
v -1.06665401 -1.0721431e-2 -3.6551388e-4
vn 0.44926423 0.89328094 1.4519460e-2
vn 0.64630459 -0.46327690 -0.60635376
vn 0.63547760 -0.45529656 0.62359703
vn -0.73809851 -0.67463222 9.0525427e-3
g tetrahedron5_copy6_Ship
usemtl Ship
s 1
f 26//26 28//28 27//27
f 26//26 29//29 28//28
f 27//27 29//29 26//26
f 28//28 29//29 27//27
o tetrahedron5
#4 vertices, 4 faces
v 0.41425391 0.79093382 -2.1256896e-4
v 0.40624641 0.17987767 0.19710649
v 0.41092839 0.18163989 -0.19768457
v 1.05870114 -1.0721431e-2 -2.1256896e-4
vn -0.44926423 0.89328094 -1.4519460e-2
vn -0.64630459 -0.46327690 0.60635376
vn -0.63547760 -0.45529656 -0.62359703
vn 0.73809851 -0.67463222 -9.0525427e-3
g tetrahedron5_Ship
usemtl Ship
s 1
f 30//30 32//32 31//31
f 30//30 33//33 32//32
f 31//31 33//33 30//30
f 32//32 33//33 31//31
o Cylinder4
#32 vertices, 60 faces
v 0.42465300 1.92955544 -9.0262781e-2
v 0.42687029 1.92955544 7.9115731e-2
v 0.36410044 1.92955544 0.23644959
v 0.24589960 1.92955544 0.35778614
v 9.0262781e-2 1.92955544 0.42465300
v -7.9115731e-2 1.92955544 0.42687029
v -0.23644959 1.92955544 0.36410044
v -0.35778614 1.92955544 0.24589960
v -0.42465300 1.92955544 9.0262781e-2
v -0.42687029 1.92955544 -7.9115731e-2
v -0.36410044 1.92955544 -0.23644959
v -0.24589960 1.92955544 -0.35778614
v -9.0262781e-2 1.92955544 -0.42465300
v 7.9115731e-2 1.92955544 -0.42687029
v 0.23644959 1.92955544 -0.36410044
v 0.35778614 1.92955544 -0.24589960
v 0.42465300 0.15755544 -9.0262781e-2
v 0.42687029 0.15755544 7.9115731e-2
v 0.36410044 0.15755544 0.23644959
v 0.24589960 0.15755544 0.35778614
v 9.0262781e-2 0.15755544 0.42465300
v -7.9115731e-2 0.15755544 0.42687029
v -0.23644959 0.15755544 0.36410044
v -0.35778614 0.15755544 0.24589960
v -0.42465300 0.15755544 9.0262781e-2
v -0.42687029 0.15755544 -7.9115731e-2
v -0.36410044 0.15755544 -0.23644959
v -0.24589960 0.15755544 -0.35778614
v -9.0262781e-2 0.15755544 -0.42465300
v 7.9115731e-2 0.15755544 -0.42687029
v 0.23644959 0.15755544 -0.36410044
v 0.35778614 0.15755544 -0.24589960
vn 0.53529679 0.83696551 -0.11378084
vn 0.95278925 0.24699991 0.17658905
vn 0.58724930 0.71393252 0.38136415
vn 0.44993195 0.60744384 0.65465505
vn 0.11378084 0.83696551 0.53529679
vn -0.14476109 0.60744384 0.78106095
vn -0.29805678 0.83696551 0.45896720
vn -0.65465505 0.60744384 0.44993195
vn -0.53529679 0.83696551 0.11378084
vn -0.95278925 0.24699991 -0.17658905
vn -0.58724930 0.71393252 -0.38136415
vn -0.44993195 0.60744384 -0.65465505
vn -0.11378084 0.83696551 -0.53529679
vn 0.14476109 0.60744384 -0.78106095
vn 0.29805678 0.83696551 -0.45896720
vn 0.65465505 0.60744384 -0.44993195
vn 0.87144065 -0.45418155 -0.18523043
vn 0.87599080 -0.45418155 0.16235530
vn 0.66620856 -0.60744384 0.43264090
vn 0.30996901 -0.83696551 0.45100770
vn 0.16515728 -0.60744384 0.77700390
vn -9.9729418e-2 -0.83696551 0.53809179
vn -0.43264090 -0.60744384 0.66620856
vn -0.45100770 -0.83696551 0.30996901
vn -0.87144065 -0.45418155 0.18523043
vn -0.87599080 -0.45418155 -0.16235530
vn -0.66620856 -0.60744384 -0.43264090
vn -0.30996901 -0.83696551 -0.45100770
vn -0.16515728 -0.60744384 -0.77700390
vn 9.9729418e-2 -0.83696551 -0.53809179
vn 0.43264090 -0.60744384 -0.66620856
vn 0.45100770 -0.83696551 -0.30996901
g Cylinder4_Ship
usemtl Ship
s 1
f 34//34 36//36 35//35
f 34//34 50//50 49//49
f 35//35 50//50 34//34
f 35//35 52//52 51//51
f 36//36 34//34 37//37
f 36//36 52//52 35//35
f 37//37 49//49 38//38
f 37//37 52//52 36//36
f 37//37 54//54 53//53
f 38//38 48//48 39//39
f 38//38 54//54 37//37
f 39//39 47//47 40//40
f 39//39 54//54 38//38
f 39//39 56//56 55//55
f 40//40 46//46 41//41
f 40//40 56//56 39//39
f 41//41 45//45 42//42
f 41//41 56//56 40//40
f 41//41 58//58 57//57
f 42//42 44//44 43//43
f 42//42 58//58 41//41
f 43//43 58//58 42//42
f 43//43 60//60 59//59
f 44//44 42//42 45//45
f 44//44 60//60 43//43
f 45//45 41//41 46//46
f 45//45 60//60 44//44
f 45//45 62//62 61//61
f 46//46 40//40 47//47
f 46//46 62//62 45//45
f 47//47 39//39 48//48
f 47//47 62//62 46//46
f 47//47 64//64 63//63
f 48//48 38//38 49//49
f 48//48 64//64 47//47
f 49//49 37//37 34//34
f 49//49 50//50 65//65
f 49//49 64//64 48//48
f 50//50 52//52 65//65
f 51//51 50//50 35//35
f 51//51 52//52 50//50
f 53//53 52//52 37//37
f 53//53 65//65 52//52
f 54//54 64//64 53//53
f 55//55 54//54 39//39
f 55//55 63//63 54//54
f 56//56 62//62 55//55
f 57//57 56//56 41//41
f 57//57 61//61 56//56
f 58//58 60//60 57//57
f 59//59 58//58 43//43
f 59//59 60//60 58//58
f 61//61 57//57 60//60
f 61//61 60//60 45//45
f 62//62 56//56 61//61
f 63//63 55//55 62//62
f 63//63 62//62 47//47
f 64//64 54//54 63//63
f 65//65 53//53 64//64
f 65//65 64//64 49//49
